<svg width="115" height="174" viewBox="0 0 115 174" fill="none" xmlns="http://www.w3.org/2000/svg">
<rect x="2.5" y="2.5" width="110" height="169" rx="7.5" fill="#FF8938" stroke="black" stroke-width="5"/>
<path d="M63.1526 80.7203C65.6481 81.7333 65.6481 85.2666 63.1526 86.2797L25.2598 101.662C23.5494 102.357 21.6237 101.356 21.2083 99.5576L17.6559 84.175C17.5533 83.7308 17.5533 83.2691 17.6559 82.8249L21.2083 67.4424C21.6237 65.6438 23.5494 64.6434 25.2598 65.3377L63.1526 80.7203Z" fill="white"/>
<path d="M53.8474 108.265C51.3519 107.252 51.3519 103.719 53.8474 102.706L91.7402 87.3233C93.4506 86.629 95.3763 87.6293 95.7917 89.4279L99.3441 104.811C99.4467 105.255 99.4467 105.716 99.3441 106.161L95.7917 121.543C95.3763 123.342 93.4506 124.342 91.7402 123.648L53.8474 108.265Z" fill="black"/>
<path d="M53.8474 65.2653C51.3519 64.2522 51.3519 60.7189 53.8474 59.7059L91.7402 44.3233C93.4506 43.629 95.3763 44.6293 95.7917 46.4279L99.3441 61.8105C99.4467 62.2547 99.4467 62.7164 99.3441 63.1606L95.7917 78.5432C95.3763 80.3418 93.4506 81.3421 91.7402 80.6478L53.8474 65.2653Z" fill="black"/>
<path d="M63.1526 124.706C65.6481 125.719 65.6481 129.252 63.1526 130.265L25.2598 145.648C23.5494 146.342 21.6237 145.342 21.2083 143.543L17.6559 128.161C17.5533 127.716 17.5533 127.255 17.6559 126.811L21.2083 111.428C21.6237 109.629 23.5494 108.629 25.2598 109.323L63.1526 124.706Z" fill="white"/>
<path d="M63.1526 36.7059C65.6481 37.7189 65.6481 41.2522 63.1526 42.2653L25.2598 57.6478C23.5494 58.3422 21.6237 57.3418 21.2083 55.5432L17.6559 40.1606C17.5533 39.7164 17.5533 39.2547 17.6559 38.8105L21.2083 23.428C21.6237 21.6294 23.5494 20.629 25.2598 21.3233L63.1526 36.7059Z" fill="white"/>
</svg>
