<svg width="127" height="212" viewBox="0 0 127 212" fill="none" xmlns="http://www.w3.org/2000/svg">
<rect x="3" y="19" width="121" height="189.461" rx="12" fill="#FF8938" fill-opacity="0.99" stroke="white" stroke-width="6"/>
<path d="M21.115 198.12C20.805 198.12 20.565 198.035 20.395 197.865C20.235 197.685 20.155 197.44 20.155 197.13L20.155 188.4C20.155 188.08 20.24 187.84 20.41 187.68C20.58 187.51 20.82 187.425 21.13 187.425H24.745C25.905 187.425 26.8 187.715 27.43 188.295C28.06 188.875 28.375 189.685 28.375 190.725C28.375 191.765 28.06 192.58 27.43 193.17C26.8 193.75 25.905 194.04 24.745 194.04H22.075V197.13C22.075 197.44 21.995 197.685 21.835 197.865C21.675 198.035 21.435 198.12 21.115 198.12ZM22.075 192.525H24.445C25.125 192.525 25.64 192.375 25.99 192.075C26.34 191.765 26.515 191.315 26.515 190.725C26.515 190.135 26.34 189.69 25.99 189.39C25.64 189.09 25.125 188.94 24.445 188.94H22.075L22.075 192.525ZM30.6902 198.105C30.3902 198.105 30.1602 198.015 30.0002 197.835C29.8402 197.655 29.7602 197.405 29.7602 197.085L29.7602 191.58C29.7602 191.25 29.8402 191 30.0002 190.83C30.1602 190.65 30.3902 190.56 30.6902 190.56C30.9902 190.56 31.2202 190.65 31.3802 190.83C31.5502 191 31.6352 191.25 31.6352 191.58L31.6352 197.085C31.6352 197.405 31.5552 197.655 31.3952 197.835C31.2352 198.015 31.0002 198.105 30.6902 198.105ZM30.6902 189.165C30.3402 189.165 30.0652 189.08 29.8652 188.91C29.6752 188.73 29.5802 188.485 29.5802 188.175C29.5802 187.855 29.6752 187.61 29.8652 187.44C30.0652 187.27 30.3402 187.185 30.6902 187.185C31.0502 187.185 31.3252 187.27 31.5152 187.44C31.7052 187.61 31.8002 187.855 31.8002 188.175C31.8002 188.485 31.7052 188.73 31.5152 188.91C31.3252 189.08 31.0502 189.165 30.6902 189.165ZM34.0334 198C33.8434 198 33.6834 197.955 33.5534 197.865C33.4334 197.765 33.3534 197.64 33.3134 197.49C33.2734 197.34 33.2734 197.18 33.3134 197.01C33.3634 196.83 33.4584 196.66 33.5984 196.5L37.4834 191.625V192.075H33.9434C33.7134 192.075 33.5334 192.015 33.4034 191.895C33.2834 191.765 33.2234 191.59 33.2234 191.37C33.2234 191.14 33.2834 190.965 33.4034 190.845C33.5334 190.725 33.7134 190.665 33.9434 190.665H38.3834C38.6034 190.665 38.7834 190.715 38.9234 190.815C39.0634 190.905 39.1534 191.025 39.1934 191.175C39.2434 191.325 39.2484 191.485 39.2084 191.655C39.1684 191.825 39.0784 191.985 38.9384 192.135L34.9784 197.085V196.59H38.7284C39.2084 196.59 39.4484 196.825 39.4484 197.295C39.4484 197.515 39.3834 197.69 39.2534 197.82C39.1334 197.94 38.9584 198 38.7284 198H34.0334ZM41.1379 198C40.9479 198 40.7879 197.955 40.6579 197.865C40.5379 197.765 40.4579 197.64 40.4179 197.49C40.3779 197.34 40.3779 197.18 40.4179 197.01C40.4679 196.83 40.5629 196.66 40.7029 196.5L44.5879 191.625V192.075H41.0479C40.8179 192.075 40.6379 192.015 40.5079 191.895C40.3879 191.765 40.3279 191.59 40.3279 191.37C40.3279 191.14 40.3879 190.965 40.5079 190.845C40.6379 190.725 40.8179 190.665 41.0479 190.665H45.4879C45.7079 190.665 45.8879 190.715 46.0279 190.815C46.1679 190.905 46.2579 191.025 46.2979 191.175C46.3479 191.325 46.3529 191.485 46.3129 191.655C46.2729 191.825 46.1829 191.985 46.0429 192.135L42.0829 197.085V196.59H45.8329C46.3129 196.59 46.5529 196.825 46.5529 197.295C46.5529 197.515 46.4879 197.69 46.3579 197.82C46.2379 197.94 46.0629 198 45.8329 198H41.1379ZM50.1341 198.15C49.6041 198.15 49.1291 198.05 48.7091 197.85C48.2991 197.64 47.9741 197.36 47.7341 197.01C47.5041 196.66 47.3891 196.265 47.3891 195.825C47.3891 195.285 47.5291 194.86 47.8091 194.55C48.0891 194.23 48.5441 194 49.1741 193.86C49.8041 193.72 50.6491 193.65 51.7091 193.65H52.4591V194.73H51.7241C51.1041 194.73 50.6091 194.76 50.2391 194.82C49.8691 194.88 49.6041 194.985 49.4441 195.135C49.2941 195.275 49.2191 195.475 49.2191 195.735C49.2191 196.065 49.3341 196.335 49.5641 196.545C49.7941 196.755 50.1141 196.86 50.5241 196.86C50.8541 196.86 51.1441 196.785 51.3941 196.635C51.6541 196.475 51.8591 196.26 52.0091 195.99C52.1591 195.72 52.2341 195.41 52.2341 195.06V193.335C52.2341 192.835 52.1241 192.475 51.9041 192.255C51.6841 192.035 51.3141 191.925 50.7941 191.925C50.5041 191.925 50.1891 191.96 49.8491 192.03C49.5191 192.1 49.1691 192.22 48.7991 192.39C48.6091 192.48 48.4391 192.505 48.2891 192.465C48.1491 192.425 48.0391 192.345 47.9591 192.225C47.8791 192.095 47.8391 191.955 47.8391 191.805C47.8391 191.655 47.8791 191.51 47.9591 191.37C48.0391 191.22 48.1741 191.11 48.3641 191.04C48.8241 190.85 49.2641 190.715 49.6841 190.635C50.1141 190.555 50.5041 190.515 50.8541 190.515C51.5741 190.515 52.1641 190.625 52.6241 190.845C53.0941 191.065 53.4441 191.4 53.6741 191.85C53.9041 192.29 54.0191 192.86 54.0191 193.56V197.16C54.0191 197.47 53.9441 197.71 53.7941 197.88C53.6441 198.04 53.4291 198.12 53.1491 198.12C52.8691 198.12 52.6491 198.04 52.4891 197.88C52.3391 197.71 52.2641 197.47 52.2641 197.16V196.44H52.3841C52.3141 196.79 52.1741 197.095 51.9641 197.355C51.7641 197.605 51.5091 197.8 51.1991 197.94C50.8891 198.08 50.5341 198.15 50.1341 198.15ZM62.328 198.15C61.898 198.15 61.443 198.105 60.963 198.015C60.483 197.925 60.053 197.77 59.673 197.55C59.513 197.45 59.398 197.335 59.328 197.205C59.268 197.065 59.243 196.93 59.253 196.8C59.273 196.66 59.323 196.54 59.403 196.44C59.493 196.34 59.603 196.275 59.733 196.245C59.873 196.215 60.023 196.24 60.183 196.32C60.583 196.51 60.958 196.645 61.308 196.725C61.658 196.795 62.003 196.83 62.343 196.83C62.823 196.83 63.178 196.75 63.408 196.59C63.648 196.42 63.768 196.2 63.768 195.93C63.768 195.7 63.688 195.525 63.528 195.405C63.378 195.275 63.148 195.18 62.838 195.12L61.338 194.835C60.718 194.715 60.243 194.49 59.913 194.16C59.593 193.82 59.433 193.385 59.433 192.855C59.433 192.375 59.563 191.96 59.823 191.61C60.093 191.26 60.463 190.99 60.933 190.8C61.403 190.61 61.943 190.515 62.553 190.515C62.993 190.515 63.403 190.565 63.783 190.665C64.173 190.755 64.548 190.9 64.908 191.1C65.058 191.18 65.158 191.285 65.208 191.415C65.268 191.545 65.283 191.68 65.253 191.82C65.223 191.95 65.163 192.07 65.073 192.18C64.983 192.28 64.868 192.345 64.728 192.375C64.598 192.395 64.448 192.365 64.278 192.285C63.968 192.125 63.668 192.01 63.378 191.94C63.098 191.87 62.828 191.835 62.568 191.835C62.078 191.835 61.713 191.92 61.473 192.09C61.243 192.26 61.128 192.485 61.128 192.765C61.128 192.975 61.198 193.15 61.338 193.29C61.478 193.43 61.693 193.525 61.983 193.575L63.483 193.86C64.133 193.98 64.623 194.2 64.953 194.52C65.293 194.84 65.463 195.27 65.463 195.81C65.463 196.54 65.178 197.115 64.608 197.535C64.038 197.945 63.278 198.15 62.328 198.15Z" fill="#FFEFEF"/>
<path d="M57.0623 191.1C56.9323 191.26 56.7923 191.35 56.6423 191.37C56.5023 191.39 56.3773 191.365 56.2673 191.295C56.1573 191.215 56.0973 191.105 56.0873 190.965C56.0773 190.815 56.1423 190.655 56.2823 190.485C56.4823 190.235 56.6173 189.985 56.6873 189.735C56.7573 189.485 56.7923 189.265 56.7923 189.075L56.8673 189.57C56.5173 189.57 56.2323 189.47 56.0123 189.27C55.8023 189.07 55.6973 188.8 55.6973 188.46C55.6973 188.13 55.7973 187.865 55.9973 187.665C56.1973 187.455 56.4673 187.35 56.8073 187.35C57.1573 187.35 57.4323 187.47 57.6323 187.71C57.8323 187.94 57.9323 188.275 57.9323 188.715C57.9323 188.955 57.9073 189.205 57.8573 189.465C57.8173 189.715 57.7323 189.98 57.6023 190.26C57.4823 190.53 57.3023 190.81 57.0623 191.1ZM74.4295 198.15C73.6595 198.15 72.9895 197.995 72.4195 197.685C71.8495 197.365 71.4095 196.915 71.0995 196.335C70.7895 195.755 70.6345 195.075 70.6345 194.295C70.6345 193.705 70.7195 193.18 70.8895 192.72C71.0695 192.25 71.3245 191.855 71.6545 191.535C71.9845 191.205 72.3845 190.955 72.8545 190.785C73.3245 190.605 73.8495 190.515 74.4295 190.515C74.7595 190.515 75.1145 190.56 75.4945 190.65C75.8845 190.74 76.2495 190.89 76.5895 191.1C76.7495 191.2 76.8545 191.32 76.9045 191.46C76.9545 191.6 76.9645 191.745 76.9345 191.895C76.9045 192.035 76.8395 192.16 76.7395 192.27C76.6495 192.37 76.5345 192.435 76.3945 192.465C76.2545 192.485 76.0995 192.45 75.9295 192.36C75.7095 192.23 75.4845 192.135 75.2545 192.075C75.0245 192.005 74.8045 191.97 74.5945 191.97C74.2645 191.97 73.9745 192.025 73.7245 192.135C73.4745 192.235 73.2595 192.385 73.0795 192.585C72.9095 192.775 72.7795 193.015 72.6895 193.305C72.5995 193.595 72.5545 193.93 72.5545 194.31C72.5545 195.05 72.7295 195.635 73.0795 196.065C73.4395 196.485 73.9445 196.695 74.5945 196.695C74.8045 196.695 75.0195 196.665 75.2395 196.605C75.4695 196.545 75.6995 196.45 75.9295 196.32C76.0995 196.23 76.2495 196.2 76.3795 196.23C76.5195 196.26 76.6345 196.33 76.7245 196.44C76.8145 196.54 76.8695 196.665 76.8895 196.815C76.9095 196.955 76.8895 197.095 76.8295 197.235C76.7795 197.375 76.6795 197.49 76.5295 197.58C76.1995 197.78 75.8495 197.925 75.4795 198.015C75.1095 198.105 74.7595 198.15 74.4295 198.15ZM80.5296 198.15C79.9996 198.15 79.5246 198.05 79.1046 197.85C78.6946 197.64 78.3696 197.36 78.1296 197.01C77.8996 196.66 77.7846 196.265 77.7846 195.825C77.7846 195.285 77.9246 194.86 78.2046 194.55C78.4846 194.23 78.9396 194 79.5696 193.86C80.1996 193.72 81.0446 193.65 82.1046 193.65H82.8546V194.73H82.1196C81.4996 194.73 81.0046 194.76 80.6346 194.82C80.2646 194.88 79.9996 194.985 79.8396 195.135C79.6896 195.275 79.6146 195.475 79.6146 195.735C79.6146 196.065 79.7296 196.335 79.9596 196.545C80.1896 196.755 80.5096 196.86 80.9196 196.86C81.2496 196.86 81.5396 196.785 81.7896 196.635C82.0496 196.475 82.2546 196.26 82.4046 195.99C82.5546 195.72 82.6296 195.41 82.6296 195.06V193.335C82.6296 192.835 82.5196 192.475 82.2996 192.255C82.0796 192.035 81.7096 191.925 81.1896 191.925C80.8996 191.925 80.5846 191.96 80.2446 192.03C79.9146 192.1 79.5646 192.22 79.1946 192.39C79.0046 192.48 78.8346 192.505 78.6846 192.465C78.5446 192.425 78.4346 192.345 78.3546 192.225C78.2746 192.095 78.2346 191.955 78.2346 191.805C78.2346 191.655 78.2746 191.51 78.3546 191.37C78.4346 191.22 78.5696 191.11 78.7596 191.04C79.2196 190.85 79.6596 190.715 80.0796 190.635C80.5096 190.555 80.8996 190.515 81.2496 190.515C81.9696 190.515 82.5596 190.625 83.0196 190.845C83.4896 191.065 83.8396 191.4 84.0696 191.85C84.2996 192.29 84.4146 192.86 84.4146 193.56V197.16C84.4146 197.47 84.3396 197.71 84.1896 197.88C84.0396 198.04 83.8246 198.12 83.5446 198.12C83.2646 198.12 83.0446 198.04 82.8846 197.88C82.7346 197.71 82.6596 197.47 82.6596 197.16V196.44H82.7796C82.7096 196.79 82.5696 197.095 82.3596 197.355C82.1596 197.605 81.9046 197.8 81.5946 197.94C81.2846 198.08 80.9296 198.15 80.5296 198.15ZM87.2778 198.12C86.9678 198.12 86.7278 198.04 86.5578 197.88C86.3978 197.71 86.3178 197.47 86.3178 197.16V191.49C86.3178 191.18 86.3978 190.945 86.5578 190.785C86.7178 190.625 86.9428 190.545 87.2328 190.545C87.5228 190.545 87.7478 190.625 87.9078 190.785C88.0678 190.945 88.1478 191.18 88.1478 191.49V192.435H87.9978C88.1378 191.835 88.4128 191.38 88.8228 191.07C89.2328 190.76 89.7778 190.575 90.4578 190.515C90.6678 190.495 90.8328 190.55 90.9528 190.68C91.0828 190.8 91.1578 190.99 91.1778 191.25C91.1978 191.5 91.1378 191.705 90.9978 191.865C90.8678 192.015 90.6678 192.105 90.3978 192.135L90.0678 192.165C89.4578 192.225 88.9978 192.415 88.6878 192.735C88.3778 193.045 88.2228 193.485 88.2228 194.055V197.16C88.2228 197.47 88.1428 197.71 87.9828 197.88C87.8228 198.04 87.5878 198.12 87.2778 198.12ZM94.8946 198.15C94.2546 198.15 93.6896 197.995 93.1996 197.685C92.7196 197.375 92.3446 196.935 92.0746 196.365C91.8046 195.785 91.6696 195.105 91.6696 194.325C91.6696 193.535 91.8046 192.86 92.0746 192.3C92.3446 191.73 92.7196 191.29 93.1996 190.98C93.6896 190.67 94.2546 190.515 94.8946 190.515C95.5046 190.515 96.0346 190.665 96.4846 190.965C96.9446 191.265 97.2546 191.66 97.4146 192.15H97.2496V188.25C97.2496 187.94 97.3296 187.705 97.4896 187.545C97.6496 187.385 97.8796 187.305 98.1796 187.305C98.4796 187.305 98.7096 187.385 98.8696 187.545C99.0396 187.705 99.1246 187.94 99.1246 188.25V197.16C99.1246 197.47 99.0446 197.71 98.8846 197.88C98.7246 198.04 98.4946 198.12 98.1946 198.12C97.8946 198.12 97.6646 198.04 97.5046 197.88C97.3446 197.71 97.2646 197.47 97.2646 197.16V195.99L97.4296 196.44C97.2796 196.96 96.9746 197.375 96.5146 197.685C96.0546 197.995 95.5146 198.15 94.8946 198.15ZM95.4196 196.725C95.7896 196.725 96.1146 196.635 96.3946 196.455C96.6746 196.275 96.8896 196.01 97.0396 195.66C97.1996 195.3 97.2796 194.855 97.2796 194.325C97.2796 193.525 97.1096 192.93 96.7696 192.54C96.4296 192.14 95.9796 191.94 95.4196 191.94C95.0496 191.94 94.7246 192.03 94.4446 192.21C94.1646 192.38 93.9446 192.645 93.7846 193.005C93.6346 193.355 93.5596 193.795 93.5596 194.325C93.5596 195.115 93.7296 195.715 94.0696 196.125C94.4096 196.525 94.8596 196.725 95.4196 196.725ZM103.754 198.15C103.324 198.15 102.869 198.105 102.389 198.015C101.909 197.925 101.479 197.77 101.099 197.55C100.939 197.45 100.824 197.335 100.754 197.205C100.694 197.065 100.669 196.93 100.679 196.8C100.699 196.66 100.749 196.54 100.829 196.44C100.919 196.34 101.029 196.275 101.159 196.245C101.299 196.215 101.449 196.24 101.609 196.32C102.009 196.51 102.384 196.645 102.734 196.725C103.084 196.795 103.429 196.83 103.769 196.83C104.249 196.83 104.604 196.75 104.834 196.59C105.074 196.42 105.194 196.2 105.194 195.93C105.194 195.7 105.114 195.525 104.954 195.405C104.804 195.275 104.574 195.18 104.264 195.12L102.764 194.835C102.144 194.715 101.669 194.49 101.339 194.16C101.019 193.82 100.859 193.385 100.859 192.855C100.859 192.375 100.989 191.96 101.249 191.61C101.519 191.26 101.889 190.99 102.359 190.8C102.829 190.61 103.369 190.515 103.979 190.515C104.419 190.515 104.829 190.565 105.209 190.665C105.599 190.755 105.974 190.9 106.334 191.1C106.484 191.18 106.584 191.285 106.634 191.415C106.694 191.545 106.709 191.68 106.679 191.82C106.649 191.95 106.589 192.07 106.499 192.18C106.409 192.28 106.294 192.345 106.154 192.375C106.024 192.395 105.874 192.365 105.704 192.285C105.394 192.125 105.094 192.01 104.804 191.94C104.524 191.87 104.254 191.835 103.994 191.835C103.504 191.835 103.139 191.92 102.899 192.09C102.669 192.26 102.554 192.485 102.554 192.765C102.554 192.975 102.624 193.15 102.764 193.29C102.904 193.43 103.119 193.525 103.409 193.575L104.909 193.86C105.559 193.98 106.049 194.2 106.379 194.52C106.719 194.84 106.889 195.27 106.889 195.81C106.889 196.54 106.604 197.115 106.034 197.535C105.464 197.945 104.704 198.15 103.754 198.15Z" fill="black"/>
<path d="M3 15C3 8.37258 8.37258 3 15 3H112C118.627 3 124 8.37258 124 15V166C124 172.627 118.627 178 112 178H15C8.37258 178 3 172.627 3 166V15Z" fill="#FF8938" stroke="white" stroke-width="6"/>
<path d="M59.1217 68.6716C56.6262 67.6585 56.6262 64.1252 59.1217 63.1122L96.1459 48.0822C98.1185 47.2814 100.274 48.7329 100.274 50.8619L100.274 80.9218C100.274 83.0508 98.1185 84.5023 96.1459 83.7015L59.1217 68.6716Z" fill="black"/>
<path d="M59.1217 117.672C56.6262 116.659 56.6262 113.125 59.1217 112.112L96.1459 97.0822C98.1185 96.2814 100.274 97.7329 100.274 99.8619L100.274 129.922C100.274 132.051 98.1185 133.502 96.1459 132.702L59.1217 117.672Z" fill="black"/>
<circle cx="90" cy="61" r="6" fill="white"/>
<path d="M67.4269 137.112C69.9224 138.125 69.9224 141.659 67.4269 142.672L30.4027 157.701C28.4301 158.502 26.2743 157.051 26.2743 154.922V124.862C26.2743 122.733 28.4301 121.281 30.4027 122.082L67.4269 137.112Z" fill="white"/>
<path d="M67.4269 87.7203C69.9224 88.7333 69.9224 92.2667 67.4269 93.2797L30.4027 108.31C28.4301 109.11 26.2743 107.659 26.2743 105.53V75.47C26.2743 73.3411 28.4301 71.8896 30.4027 72.6904L67.4269 87.7203Z" fill="white"/>
<path d="M67.1584 38.7206C69.6529 39.734 69.6529 43.266 67.1584 44.2794L30.1291 59.3225C28.1564 60.124 26 58.6714 26 56.5421C26 51.3909 26 47.4139 26 41.5C26 35.5861 26 31.6091 26 26.4579C26 24.3286 28.1564 22.876 30.1291 23.6775L67.1584 38.7206Z" fill="white"/>
<circle cx="35" cy="96" r="6" fill="black"/>
<circle cx="36" cy="37" r="6" fill="black"/>
<line x1="40.2875" y1="80.4148" x2="46.4148" y2="82.7125" stroke="black" stroke-width="2" stroke-linecap="round"/>
<line x1="40.2875" y1="83.4148" x2="46.4148" y2="85.7125" stroke="black" stroke-width="2" stroke-linecap="round"/>
<line x1="41.2875" y1="130.415" x2="47.4148" y2="132.713" stroke="black" stroke-width="2" stroke-linecap="round"/>
<line x1="78.5851" y1="108.713" x2="84.7123" y2="106.415" stroke="white" stroke-width="2" stroke-linecap="round"/>
<line x1="41.2875" y1="133.415" x2="47.4148" y2="135.713" stroke="black" stroke-width="2" stroke-linecap="round"/>
<line x1="78.5851" y1="111.713" x2="84.7123" y2="109.415" stroke="white" stroke-width="2" stroke-linecap="round"/>
</svg>
