<svg width="127" height="181" viewBox="0 0 127 181" fill="none" xmlns="http://www.w3.org/2000/svg">
<path d="M3 15C3 8.37258 8.37258 3 15 3H112C118.627 3 124 8.37258 124 15V166C124 172.627 118.627 178 112 178H15C8.37258 178 3 172.627 3 166V15Z" fill="#FF8938" stroke="white" stroke-width="6"/>
<path d="M59.1217 68.6716C56.6262 67.6585 56.6262 64.1252 59.1217 63.1122L96.1459 48.0822C98.1185 47.2814 100.274 48.7329 100.274 50.8619L100.274 80.9218C100.274 83.0508 98.1185 84.5023 96.1459 83.7015L59.1217 68.6716Z" fill="black"/>
<path d="M59.1217 117.672C56.6262 116.659 56.6262 113.125 59.1217 112.112L96.1459 97.0822C98.1185 96.2814 100.274 97.7329 100.274 99.8619L100.274 129.922C100.274 132.051 98.1185 133.502 96.1459 132.702L59.1217 117.672Z" fill="black"/>
<circle cx="90" cy="61" r="6" fill="white"/>
<path d="M67.4269 137.112C69.9224 138.125 69.9224 141.659 67.4269 142.672L30.4027 157.701C28.4301 158.502 26.2743 157.051 26.2743 154.922V124.862C26.2743 122.733 28.4301 121.281 30.4027 122.082L67.4269 137.112Z" fill="white"/>
<path d="M67.4269 87.7203C69.9224 88.7333 69.9224 92.2667 67.4269 93.2797L30.4027 108.31C28.4301 109.11 26.2743 107.659 26.2743 105.53V75.47C26.2743 73.3411 28.4301 71.8896 30.4027 72.6904L67.4269 87.7203Z" fill="white"/>
<path d="M67.1584 38.7206C69.6529 39.734 69.6529 43.266 67.1584 44.2794L30.1291 59.3225C28.1564 60.124 26 58.6714 26 56.5421C26 51.3909 26 47.4139 26 41.5C26 35.5861 26 31.6091 26 26.4579C26 24.3286 28.1564 22.876 30.1291 23.6775L67.1584 38.7206Z" fill="white"/>
<circle cx="35" cy="96" r="6" fill="black"/>
<circle cx="36" cy="37" r="6" fill="black"/>
<line x1="40.2875" y1="80.4148" x2="46.4148" y2="82.7125" stroke="black" stroke-width="2" stroke-linecap="round"/>
<line x1="40.2875" y1="83.4148" x2="46.4148" y2="85.7125" stroke="black" stroke-width="2" stroke-linecap="round"/>
<line x1="41.2875" y1="130.415" x2="47.4148" y2="132.713" stroke="black" stroke-width="2" stroke-linecap="round"/>
<line x1="78.5851" y1="108.713" x2="84.7123" y2="106.415" stroke="white" stroke-width="2" stroke-linecap="round"/>
<line x1="41.2875" y1="133.415" x2="47.4148" y2="135.713" stroke="black" stroke-width="2" stroke-linecap="round"/>
<line x1="78.5851" y1="111.713" x2="84.7123" y2="109.415" stroke="white" stroke-width="2" stroke-linecap="round"/>
</svg>
