<?xml version="1.0" standalone="no"?>
<!DOCTYPE svg PUBLIC "-//W3C//DTD SVG 20010904//EN"
 "http://www.w3.org/TR/2001/REC-SVG-20010904/DTD/svg10.dtd">
<svg version="1.0" xmlns="http://www.w3.org/2000/svg"
 width="1392.000000pt" height="1392.000000pt" viewBox="0 0 1392.000000 1392.000000"
 preserveAspectRatio="xMidYMid meet">
<metadata>
Created by potrace 1.14, written by Peter Selinger 2001-2017
</metadata>
<g transform="translate(0.000000,1392.000000) scale(0.100000,-0.100000)"
fill="#000000" stroke="none">
<path d="M3059 13916 c-2 -2 -23 -7 -47 -11 -23 -3 -60 -12 -82 -20 -22 -8
-40 -12 -40 -10 0 10 -149 -71 -200 -108 -58 -43 -140 -124 -177 -175 -40 -54
-93 -152 -98 -180 -2 -9 -4 -19 -5 -22 -1 -3 -2 -8 -1 -12 0 -5 -3 -8 -7 -8
-4 0 -9 -8 -10 -17 -3 -33 -8 -48 -17 -63 -14 -21 -18 -12547 -4 -12615 5 -27
11 -58 12 -67 2 -10 6 -20 9 -24 4 -3 4 -12 1 -20 -3 -8 0 -14 6 -14 6 0 10
-3 9 -7 -3 -9 18 -67 34 -97 53 -99 92 -151 173 -230 106 -102 240 -170 405
-204 42 -9 7842 -8 7888 1 23 4 60 14 82 22 22 8 40 12 40 10 0 -3 17 4 37 15
21 11 43 20 50 20 7 0 13 5 13 10 0 6 6 10 14 10 8 0 21 6 28 14 8 7 27 21 43
29 41 22 124 101 179 170 66 83 122 206 146 319 20 96 20 120 17 6360 -1 3445
-5 6270 -8 6278 -3 8 -9 29 -13 45 -4 17 -10 37 -13 45 -3 8 -7 20 -9 27 -5
26 -67 153 -75 153 -4 0 -11 10 -14 22 -10 30 -109 139 -172 188 -54 42 -147
99 -173 105 -3 1 -17 7 -31 13 -15 6 -43 14 -63 17 -20 4 -36 10 -36 14 0 3
-10 8 -22 10 -32 5 -7864 12 -7869 7z"/>
</g>
</svg>
